<?xml version="1.0" encoding="UTF-8"?><svg id="Layer_2" xmlns="http://www.w3.org/2000/svg" xmlns:xlink="http://www.w3.org/1999/xlink" viewBox="0 0 17.74 19.66"><defs><linearGradient id="linear-gradient" x1="-8.35" y1="2.09" x2="23.89" y2="23.02" gradientUnits="userSpaceOnUse"><stop offset="0" stop-color="#08aeea"/><stop offset=".47" stop-color="#1f006a"/><stop offset="1" stop-color="#2af598"/></linearGradient></defs><g id="Layer_1-2"><path d="M16.5,7.5s-.05-.03-.07-.04l-.45-.25-.41-.21L6.85,2.35l-1.85-.98L2.43,0c-.09,.02-.18,.06-.27,.09C.89,.62,0,1.87,0,3.32v13.02c0,1.46,.89,2.7,2.16,3.23,.09,.03,.18,.07,.28,.09l2.56-1.36,1.85-.98,8.73-4.65,.44-.24c.17-.07,.33-.16,.48-.26,.75-.51,1.24-1.36,1.24-2.34s-.49-1.83-1.24-2.33ZM5,12.63V7.03l5.26,2.8-5.26,2.8Z" style="fill:url(#linear-gradient);"/></g></svg>